name Walk2.mot
datacolumns 19
datarows 25
range 1.58100000 1.60500000
endheader

                time	   L_ground_force_vx	   L_ground_force_vy	   L_ground_force_vz	   L_ground_force_px	   L_ground_force_py	   L_ground_force_pz	   R_ground_force_vx	   R_ground_force_vy	   R_ground_force_vz	   R_ground_force_px	   R_ground_force_py	   R_ground_force_pz	   L_ground_torque_x	   L_ground_torque_y	   L_ground_torque_z	   R_ground_torque_x	   R_ground_torque_y	   R_ground_torque_z	
          1.58100000	          0.00000009	          0.00000045	         -0.00000004	         -0.00000000	          0.00000000	         -0.00000000	         15.28469370	         80.14172195	         -1.07353811	          0.16630670	          0.00000000	          0.05598110	          0.00000000	         -0.00000000	          0.00000000	          0.00000000	         -3.59651132	          0.00000000	
          1.58200000	          0.00000007	          0.00000042	         -0.00000004	         -0.00000000	          0.00000000	         -0.00000000	         14.20848768	         74.55236382	         -1.00695860	          0.16202471	          0.00000000	          0.05451379	          0.00000000	         -0.00000000	          0.00000000	          0.00000000	         -3.37942377	          0.00000000	
          1.58300000	          0.00000006	          0.00000040	         -0.00000004	         -0.00000000	          0.00000000	         -0.00000000	         13.17074387	         69.16612006	         -0.94394890	          0.15760281	          0.00000000	          0.05300305	          0.00000000	         -0.00000000	          0.00000000	          0.00000000	         -3.16839112	          0.00000000	
          1.58400000	          0.00000006	          0.00000037	         -0.00000003	         -0.00000000	          0.00000000	         -0.00000000	         12.17186974	         63.98358519	         -0.88408226	          0.15304870	          0.00000000	          0.05145106	          0.00000000	         -0.00000000	          0.00000000	          0.00000000	         -2.96359131	          0.00000000	
          1.58500000	          0.00000005	          0.00000034	         -0.00000003	         -0.00000000	          0.00000000	         -0.00000000	         11.21216386	         59.00495944	         -0.82698369	          0.14837151	          0.00000000	          0.04986050	          0.00000000	         -0.00000000	          0.00000000	          0.00000000	         -2.76518549	          0.00000000	
          1.58600000	          0.00000004	          0.00000032	         -0.00000003	         -0.00000000	          0.00000000	         -0.00000000	         10.29181020	         54.23006148	         -0.77233736	          0.14358193	          0.00000000	          0.04823459	          0.00000000	         -0.00000000	          0.00000000	          0.00000000	         -2.57331641	          0.00000000	
          1.58700000	          0.00000003	          0.00000030	         -0.00000003	         -0.00000000	          0.00000000	         -0.00000000	          9.41087338	         49.65833771	         -0.71989230	          0.13869233	          0.00000000	          0.04657716	          0.00000000	         -0.00000000	          0.00000000	          0.00000000	         -2.38810700	          0.00000000	
          1.58800000	          0.00000002	          0.00000027	         -0.00000003	         -0.00000000	          0.00000000	         -0.00000000	          8.56929551	         45.28886546	         -0.66946475	          0.13371688	          0.00000000	          0.04489266	          0.00000000	         -0.00000000	          0.00000000	          0.00000000	         -2.20965895	          0.00000000	
          1.58900000	          0.00000002	          0.00000025	         -0.00000002	         -0.00000000	          0.00000000	         -0.00000000	          7.76689513	         41.12034684	         -0.62093563	          0.12867161	          0.00000000	          0.04318620	          0.00000000	         -0.00000000	          0.00000000	          0.00000000	         -2.03805149	          0.00000000	
          1.59000000	          0.00000001	          0.00000023	         -0.00000002	         -0.00000000	          0.00000000	         -0.00000000	          7.00336888	         37.15109256	         -0.57424237	          0.12357454	          0.00000000	          0.04146360	          0.00000000	         -0.00000000	          0.00000000	          0.00000000	         -1.87334024	          0.00000000	
          1.59100000	          0.00000001	          0.00000021	         -0.00000002	         -0.00000000	          0.00000000	         -0.00000000	          6.27829633	         33.37899490	         -0.52936451	          0.11844551	          0.00000000	          0.03973137	          0.00000000	         -0.00000000	          0.00000000	          0.00000000	         -1.71555626	          0.00000000	
          1.59200000	          0.00000000	          0.00000019	         -0.00000002	         -0.00000000	          0.00000000	         -0.00000000	          5.59114817	         29.80149309	         -0.48630406	          0.11330522	          0.00000000	          0.03799637	          0.00000000	         -0.00000000	          0.00000000	          0.00000000	         -1.56470527	          0.00000000	
          1.59300000	         -0.00000000	          0.00000017	         -0.00000002	         -0.00000000	          0.00000000	         -0.00000000	          4.94129655	         26.41555247	         -0.44506716	          0.10817383	          0.00000000	          0.03626530	          0.00000000	         -0.00000000	          0.00000000	          0.00000000	         -1.42076760	          0.00000000	
          1.59400000	         -0.00000001	          0.00000015	         -0.00000002	         -0.00000000	          0.00000000	         -0.00000000	          4.32802602	         23.21768040	         -0.40565459	          0.10306996	          0.00000000	          0.03454439	          0.00000000	         -0.00000000	          0.00000000	          0.00000000	         -1.28369937	          0.00000000	
          1.59500000	         -0.00000001	          0.00000014	         -0.00000001	         -0.00000000	          0.00000000	         -0.00000000	          3.75054369	         20.20397052	         -0.36806016	          0.09801057	          0.00000000	          0.03283925	          0.00000000	         -0.00000000	          0.00000000	          0.00000000	         -1.15343444	          0.00000000	
          1.59600000	         -0.00000002	          0.00000012	         -0.00000001	         -0.00000000	          0.00000000	         -0.00000000	          3.20798889	         17.37015271	         -0.33227136	          0.09301100	          0.00000000	          0.03115500	          0.00000000	         -0.00000000	          0.00000000	          0.00000000	         -1.02988662	          0.00000000	
          1.59700000	         -0.00000002	          0.00000011	         -0.00000001	         -0.00000000	          0.00000000	         -0.00000000	          2.69944211	         14.71164012	         -0.29826989	          0.08808504	          0.00000000	          0.02949623	          0.00000000	         -0.00000000	          0.00000000	          0.00000000	         -0.91295165	          0.00000000	
          1.59800000	         -0.00000002	          0.00000009	         -0.00000001	         -0.00000000	          0.00000000	         -0.00000000	          2.22393354	         12.22357348	         -0.26603228	          0.08324505	          0.00000000	          0.02786703	          0.00000000	         -0.00000000	          0.00000000	          0.00000000	         -0.80250915	          0.00000000	
          1.59900000	         -0.00000002	          0.00000008	         -0.00000001	         -0.00000000	          0.00000000	         -0.00000000	          1.78045095	          9.90086259	         -0.23553036	          0.07850201	          0.00000000	          0.02627105	          0.00000000	         -0.00000000	          0.00000000	          0.00000000	         -0.69842443	          0.00000000	
          1.60000000	         -0.00000003	          0.00000007	         -0.00000001	         -0.00000000	          0.00000000	         -0.00000000	          1.36794720	          7.73822519	         -0.20673184	          0.07386561	          0.00000000	          0.02471150	          0.00000000	         -0.00000000	          0.00000000	          0.00000000	         -0.60055024	          0.00000000	
          1.60100000	         -0.00000003	          0.00000005	         -0.00000001	         -0.00000000	          0.00000000	         -0.00000000	          0.98534707	          5.73022328	         -0.17960069	          0.06934429	          0.00000000	          0.02319116	          0.00000000	         -0.00000000	          0.00000000	          0.00000000	         -0.50872839	          0.00000000	
          1.60200000	         -0.00000003	          0.00000004	         -0.00000001	         -0.00000000	          0.00000000	         -0.00000000	          0.63155381	          3.87129688	         -0.15409768	          0.06494536	          0.00000000	          0.02171246	          0.00000000	         -0.00000000	          0.00000000	          0.00000000	         -0.42279124	          0.00000000	
          1.60300000	         -0.00000003	          0.00000003	         -0.00000000	         -0.00000000	          0.00000000	         -0.00000000	          0.30545503	          2.15579541	         -0.13018074	          0.06067503	          0.00000000	          0.02027744	          0.00000000	         -0.00000000	          0.00000000	          0.00000000	         -0.34256321	          0.00000000	
          1.60400000	         -0.00000003	          0.00000002	         -0.00000000	         -0.00000000	          0.00000000	         -0.00000000	          0.00592828	          0.57800677	         -0.10780539	          0.05653850	          0.00000000	          0.01888780	          0.00000000	         -0.00000000	          0.00000000	          0.00000000	         -0.26786202	          0.00000000	
          1.60500000	         -0.00000003	          0.00000002	         -0.00000000	         -0.00000000	          0.00000000	         -0.00000000	         -0.26815386	         -0.86781585	         -0.08692512	          0.05254004	          0.00000000	          0.01754495	          0.00000000	         -0.00000000	          0.00000000	          0.00000000	         -0.19850005	          0.00000000	
